<?xml version="1.0" encoding="UTF-8" standalone="no"?>
<svg
   class="mpass"
   viewBox="0 0 90 80"
   version="1.1"
   id="svg13"
   xmlns="http://www.w3.org/2000/svg"
   xmlns:svg="http://www.w3.org/2000/svg"
   xmlns:rdf="http://www.w3.org/1999/02/22-rdf-syntax-ns#"
   xmlns:cc="http://creativecommons.org/ns#"
   xmlns:dc="http://purl.org/dc/elements/1.1/">
  <defs
     id="defs17" />
  <title
     id="title2">MPASSid logo</title>
  <path
     id="5"
     style="fill:#ffffff;fill-rule:evenodd"
     d="M 26.404297 4.4414062 C 26.404297 4.4414062 26.402344 4.4433594 26.402344 4.4433594 C 20.586347 4.4703285 20.451822 17.411495 19.894531 19.277344 C 19.829035 19.028097 19.769401 18.763365 19.720703 18.460938 C 19.55324 17.420919 19.189596 10.685547 14.496094 10.685547 C 14.492065 10.685547 14.488398 10.685538 14.484375 10.685547 C 14.479709 10.685533 14.475377 10.685547 14.470703 10.685547 C 11.447499 10.685547 10.057472 13.253524 8.8867188 16.712891 C 6.6922829 23.197417 4.8150098 32.580912 2.265625 33.457031 C 2.178948 33.486819 2.0921781 33.505951 2.0039062 33.515625 C 1.9130035 33.525266 1.8211906 33.524292 1.7285156 33.511719 C 1.6378501 33.499683 1.5475231 33.475706 1.4550781 33.441406 C 1.4544585 33.441176 1.4537447 33.441637 1.453125 33.441406 C 1.453125 33.441406 0.96815892 34.679653 0 37.154297 C 0.18015486 37.221543 0.35520089 37.279644 0.52539062 37.330078 C 0.52595907 37.330246 0.52677541 37.32991 0.52734375 37.330078 C 0.69686795 37.380264 0.86184758 37.423533 1.0214844 37.457031 C 1.0220777 37.457156 1.0228444 37.456907 1.0234375 37.457031 C 1.1829701 37.490448 1.3366708 37.51646 1.4863281 37.533203 C 1.6381865 37.55029 1.7840618 37.558594 1.9257812 37.558594 C 2.2186586 37.558348 2.502918 37.529631 2.7773438 37.476562 C 3.3687537 37.363204 3.9146978 37.125184 4.4277344 36.794922 C 4.5931917 36.687893 4.7561056 36.572405 4.9140625 36.445312 C 7.7002138 34.214196 9.3497934 28.980376 10.753906 24.173828 C 11.074648 23.075855 11.383861 21.988385 11.685547 20.9375 C 12.544037 18.055823 13.312225 15.70127 13.917969 14.919922 C 14.061141 14.735259 14.281598 14.451363 14.539062 14.15625 C 14.539665 14.156436 14.540414 14.156062 14.541016 14.15625 C 16.230112 14.683205 15.104036 22.00723 18.005859 24.041016 C 18.392404 24.403562 18.956602 24.623047 19.755859 24.623047 C 21.661974 24.623047 22.686212 22.832432 23.341797 20.458984 C 23.35189 20.422987 23.361173 20.385878 23.371094 20.349609 C 23.443129 20.082323 23.510537 19.809105 23.574219 19.529297 C 23.585872 19.478775 23.599925 19.431734 23.611328 19.380859 C 23.609453 19.384926 23.60735 19.388522 23.605469 19.392578 C 23.925036 17.952099 24.150187 16.379956 24.371094 14.894531 C 24.800514 12.007173 25.516441 9.5738429 26.064453 8.7304688 C 26.229643 8.4762699 26.414626 8.2217091 26.609375 7.9746094 C 27.44561 8.4137442 27.656794 11.563477 28.109375 14.230469 C 28.266879 15.158712 28.456464 16.087215 28.736328 16.923828 C 28.792067 17.090313 28.850578 17.253546 28.914062 17.412109 C 28.914062 17.412109 28.914062 17.414062 28.914062 17.414062 C 29.487177 18.851018 30.397635 19.930731 32 20.128906 C 32.177993 20.151334 32.364993 20.164062 32.560547 20.164062 C 32.683936 20.164062 32.807325 20.154434 32.927734 20.140625 C 32.929767 20.14038 32.931562 20.13892 32.933594 20.138672 C 34.441446 19.961931 35.721477 18.739645 36.886719 17.300781 C 36.856772 17.322965 36.830285 17.337947 36.800781 17.359375 C 38.669792 15.059614 40.24554 12.183594 42 12.183594 L 42 8.234375 C 37.377936 8.131798 33.873274 16.256506 32.609375 16.523438 C 32.512992 16.282149 32.422438 16.029909 32.330078 15.773438 C 31.805463 14.316604 31.913128 7.567047 28.839844 5.2382812 C 28.785932 5.197087 28.731687 5.1555646 28.675781 5.1171875 C 28.632931 5.088011 28.588957 5.0606942 28.544922 5.0332031 C 28.46001 4.9797547 28.372654 4.9296384 28.283203 4.8828125 C 28.262233 4.8719213 28.241925 4.8601303 28.220703 4.8496094 C 28.093845 4.7862399 27.962322 4.7290784 27.826172 4.6796875 C 27.823688 4.6787904 27.820847 4.6786267 27.818359 4.6777344 C 27.679316 4.6277051 27.533867 4.5852546 27.384766 4.5507812 C 27.380988 4.549908 27.376831 4.5496912 27.373047 4.5488281 C 27.23641 4.5176696 27.094597 4.4938724 26.949219 4.4765625 C 26.927737 4.4739802 26.906441 4.4710244 26.884766 4.46875 C 26.73368 4.4531071 26.580651 4.4414062 26.419922 4.4414062 C 26.414579 4.4413887 26.409651 4.4414062 26.404297 4.4414062 z "
     transform="scale(1.9047619)" />
</svg>
