<?xml version="1.0" encoding="UTF-8" standalone="no"?>
<svg
   class="mpassc"
   viewBox="0 0 42 42"
   version="1.1"
   id="svg225"
   xmlns="http://www.w3.org/2000/svg"
   xmlns:svg="http://www.w3.org/2000/svg"
   xmlns:rdf="http://www.w3.org/1999/02/22-rdf-syntax-ns#"
   xmlns:cc="http://creativecommons.org/ns#"
   xmlns:dc="http://purl.org/dc/elements/1.1/">
  <defs
     id="defs229" />
  <title
     id="title21">MPASSid logo color</title>
  <rect
     style="fill:#ffffff;stroke-width:1.35643"
     id="rect1973"
     width="42"
     height="42"
     x="0"
     y="0" />
    <path
       d="m 40,9.7845679 c -4.251635,-0.091621 -7.459691,7.2940291 -8.553188,7.2940291 -0.173361,0 -0.279271,-0.810828 -0.378249,-1.432535 -0.409802,-2.574069 -4.072429,-3.116117 -3.633087,-0.592454 0.454208,2.609063 1.191907,5.211701 4.011336,5.211701 3.723389,0 5.911201,-7.010765 8.553188,-7.010765 0,-1.532354 0,-2.670549 0,-3.4699761 z"
       id="5"
       fill="#0041dc"
       style="fill-rule:evenodd" />
    <path
       d="M 31.250777,16.407674 C 30.674913,14.85484 30.944846,6.4531248 25.890341,6.4531248 23.05571,9.2718676 24.670357,12.295724 25.05337,11.256181 c 0.289635,-0.786105 0.583072,-1.7505119 0.836971,-1.7505119 0.914559,0 1.100358,3.0225389 1.541489,5.5467699 0.456058,2.609648 1.196762,5.21287 4.027673,5.21287 1.512871,0 2.773259,-1.148312 3.913555,-2.515567 -2.820386,2.028737 -3.459169,0.446038 -4.122281,-1.342068 z"
       id="4"
       fill="#5bca13"
       style="fill-rule:evenodd" />
    <path
       d="m 29.663212,9.2401238 c -0.717324,-1.5820887 -1.859945,-2.786999 -3.760094,-2.786999 -5.687268,0 -5.384254,13.2458972 -6.028466,13.2458972 -0.04002,0 -0.07004,-1.19714 -0.164103,-1.847663 -0.282545,-1.954147 -4.587746,6.332301 0.164103,6.332301 2.961434,0 3.575022,-4.629596 4.175078,-8.547637 0.388504,-2.53671 1.03614,-4.674521 1.532,-5.415474 1.029357,-1.5381439 2.777492,-3.2244415 4.081482,-0.9804252 z"
       id="3"
       fill="#0041dc"
       style="fill-rule:evenodd" />
    <path
       d="m 19.842002,18.768638 c -0.151517,-0.913713 -0.479446,-6.829823 -4.725996,-6.829823 -2.740258,0 -4.00013,2.255724 -5.061276,5.294978 -2.1948669,6.286371 -4.0386442,15.672499 -6.7384042,14.697434 0,0 -0.4387753,1.087058 -1.3163262,3.261173 0.6531689,0.236316 1.2341092,0.354475 1.7428207,0.354475 4.267828,0 6.3179027,-6.209276 7.9872827,-11.75848 1.31695,-4.377687 2.485085,-8.827599 3.243738,-8.827599 2.072932,0 0.142165,9.171973 4.904687,9.171973 1.969978,0 2.90335,-2.038677 3.484166,-4.554947 -0.967976,2.038913 -2.94312,2.673823 -3.520692,-0.809184 z"
       id="2"
       fill="#5bca13"
       style="fill-rule:evenodd" />
    <path
       d="m 18.932642,14.885092 c -0.640531,-1.544355 -1.777065,-2.946277 -3.840494,-2.946277 -2.735274,0 -3.992854,2.255724 -5.05207,5.294978 -2.1908737,6.286371 -4.0312977,15.672499 -6.7261466,14.697434 0,0 -0.4379772,1.087058 -1.3139318,3.261173 0.6519808,0.236316 1.2318643,0.354475 1.7396505,0.354475 4.2600651,0 6.3064099,-6.209276 7.9727549,-11.75848 1.122467,-3.738006 2.13663,-7.199204 2.880502,-8.130913 0.616672,-0.77239 2.56267,-3.38725 4.339735,-0.77239 z"
       id="1"
       fill="#0041dc"
       style="fill-rule:evenodd" />
</svg>
